<?xml version="1.0" standalone="no"?>
<!DOCTYPE svg PUBLIC "-//W3C//DTD SVG 20010904//EN"
 "http://www.w3.org/TR/2001/REC-SVG-20010904/DTD/svg10.dtd">
<svg version="1.0" xmlns="http://www.w3.org/2000/svg"
 width="512.000000pt" height="512.000000pt" viewBox="0 0 512.000000 512.000000"
 preserveAspectRatio="xMidYMid meet">

<g transform="translate(0.000000,512.000000) scale(0.100000,-0.100000)"
fill="#000000" stroke="none">
<path d="M0 2560 l0 -2560 2560 0 2560 0 0 2560 0 2560 -2560 0 -2560 0 0
-2560z m860 2089 c0 -81 -5 -149 -11 -161 -14 -26 -67 -48 -102 -41 -15 3 -38
19 -52 35 -22 26 -25 39 -25 103 0 80 -13 105 -54 105 -38 0 -46 -19 -46 -109
1 -138 46 -207 156 -232 71 -16 128 1 180 56 53 54 64 100 64 260 l0 125 768
-2 c758 -3 768 -3 813 -24 59 -27 116 -85 143 -143 18 -40 21 -69 24 -214 4
-167 4 -168 28 -179 22 -10 24 -17 24 -84 l0 -72 -52 20 c-65 26 -193 28 -254
5 -22 -8 -152 -83 -289 -167 l-247 -152 -67 66 c-81 80 -112 105 -177 145 -82
50 -124 37 -124 -37 0 -71 37 -235 75 -333 4 -11 -20 -31 -94 -77 -54 -34
-113 -78 -130 -97 -98 -112 -123 -284 -59 -410 20 -38 526 -869 602 -987 85
-133 172 -228 344 -375 106 -91 262 -254 262 -275 0 -15 -70 -28 -153 -28 -83
0 -91 2 -113 25 -33 36 -105 36 -138 0 -18 -20 -33 -25 -70 -25 -25 0 -46 4
-46 9 0 5 -7 17 -16 25 -13 13 -46 16 -205 16 -190 0 -229 -6 -229 -35 0 -27
-69 -19 -92 10 l-19 25 -483 0 c-557 0 -546 -2 -633 85 -90 91 -84 -41 -81
1621 l3 1459 31 55 c38 66 86 107 156 131 43 15 85 18 221 19 l167 0 0 -141z
m1836 -658 c23 -10 56 -34 75 -53 19 -19 153 -228 298 -466 154 -252 271 -434
282 -437 44 -14 82 38 57 78 -8 12 -24 39 -37 59 l-22 38 33 -14 c182 -76 217
-103 240 -178 14 -47 15 -40 -117 -559 l-99 -386 187 -305 c103 -168 187 -310
187 -314 -1 -5 -168 -107 -373 -226 -205 -120 -390 -229 -413 -242 l-40 -25
-127 207 c-69 115 -150 241 -178 281 -65 93 -179 213 -289 304 -108 90 -199
183 -265 272 -61 82 -617 987 -651 1060 -27 56 -31 133 -12 196 16 54 70 114
147 164 116 73 104 73 146 2 50 -83 49 -105 -8 -166 -54 -58 -66 -100 -43
-155 28 -67 287 -480 313 -500 14 -10 45 -21 69 -24 35 -4 53 1 97 26 l54 30
129 -211 c142 -233 162 -261 207 -283 38 -20 117 -20 155 0 65 34 111 121 98
188 -3 19 -76 148 -161 287 -85 139 -155 258 -155 263 0 6 36 70 80 143 92
153 110 197 110 269 0 72 -12 107 -75 221 -65 117 -69 148 -25 198 43 50 39
82 -13 100 -22 8 -89 -51 -107 -93 -8 -20 -18 -29 -29 -26 -84 22 -134 12
-239 -49 -92 -54 -123 -57 -163 -14 -16 17 -29 35 -29 39 0 8 465 295 502 310
41 16 160 11 204 -9z m-928 -196 c34 -31 62 -60 62 -65 0 -5 -23 -22 -50 -39
l-50 -31 -10 25 c-8 21 -32 112 -44 167 -6 25 16 11 92 -57z m324 -465 c607
-991 598 -977 598 -1013 0 -26 -6 -40 -22 -51 -27 -19 -68 -21 -90 -3 -9 6
-113 170 -230 362 -501 820 -557 912 -563 927 -9 22 105 92 121 75 7 -7 90
-140 186 -297z m344 259 c30 -28 116 -177 109 -189 -6 -9 -247 -158 -263 -162
-9 -2 -182 263 -182 278 0 2 8 4 18 4 9 0 55 23 102 50 78 47 89 50 138 47 38
-3 59 -10 78 -28z m120 -341 c-7 -18 -42 -81 -78 -140 l-64 -107 -44 71 c-35
56 -40 72 -29 79 8 4 57 35 109 68 113 71 126 74 106 29z m-663 -75 c86 -140
83 -127 33 -157 -25 -14 -47 -26 -50 -26 -7 0 -40 51 -85 132 l-33 57 39 40
c21 21 39 39 40 40 1 1 26 -38 56 -86z m197 -324 c49 -80 60 -103 49 -111 -37
-24 -72 -39 -83 -35 -11 4 -126 181 -126 192 0 5 83 55 92 55 3 0 34 -46 68
-101z m1935 -1459 c14 -11 86 -131 540 -895 130 -220 244 -410 251 -422 l14
-23 -777 0 -778 1 -192 329 c-212 363 -217 374 -165 429 27 29 984 596 1019
603 22 5 70 -7 88 -22z"/>
<path d="M925 4176 c-29 -13 -67 -50 -91 -92 -9 -16 -24 -19 -101 -19 -98 0
-123 -11 -123 -51 0 -44 37 -56 154 -52 116 3 132 11 167 80 32 63 104 64 141
2 39 -66 80 -69 113 -7 36 68 115 70 146 4 30 -64 74 -65 114 -1 17 27 36 42
66 51 53 17 67 38 51 73 -10 22 -18 26 -54 26 -28 0 -57 -9 -82 -24 l-40 -24
-28 21 c-20 15 -48 22 -91 25 -54 3 -67 0 -99 -22 l-38 -25 -36 24 c-42 29
-118 33 -169 11z"/>
<path d="M439 4057 c-33 -17 -37 -60 -7 -81 29 -20 82 -21 102 0 19 19 21 58
4 71 -22 17 -73 22 -99 10z"/>
</g>
</svg>
