<svg id="SvgjsSvg1021" width="288" height="288" xmlns="http://www.w3.org/2000/svg" version="1.1" xmlns:xlink="http://www.w3.org/1999/xlink" xmlns:svgjs="http://svgjs.com/svgjs"><defs id="SvgjsDefs1022"></defs><g id="SvgjsG1023"><svg xmlns="http://www.w3.org/2000/svg" enable-background="new 0 0 24 24" viewBox="0 0 24 24" width="288" height="288"><path d="M12.125,19H0.5C0.224,19,0,18.776,0,18.5v-13C0,5.224,0.224,5,0.5,5h23c0.196,0,0.374,0.114,0.455,0.293s0.051,0.389-0.079,0.536l-11.375,13C12.406,18.938,12.27,19,12.125,19z M1,18h10.898l10.5-12H1V18z" fill="#b31734" class="color000 svgShape"></path><path d="M3.054,16c-1.013,0-1.958-0.237-2.79-0.686c-0.243-0.131-0.334-0.434-0.203-0.677l0.72-1.342c0.063-0.118,0.171-0.206,0.3-0.243c0.128-0.039,0.267-0.022,0.384,0.043c0.715,0.397,1.127,0.467,1.678,0.454c0.168-0.003,0.27-0.021,0.33-0.039c-0.187-0.089-0.522-0.186-0.725-0.244c-0.477-0.139-1.175-0.367-1.729-0.751c-0.7-0.481-1.033-1.119-1.018-1.949c0.006-0.611,0.259-1.19,0.712-1.627C1.335,8.334,2.287,8,3.391,8c0.938,0.001,2.06,0.251,2.863,0.636c0.127,0.062,0.223,0.174,0.263,0.31c0.04,0.135,0.021,0.281-0.053,0.402l-0.809,1.325c-0.132,0.215-0.404,0.3-0.634,0.194c-0.773-0.352-1.121-0.369-1.525-0.39c-0.105-0.006-0.194-0.003-0.27,0.005c0.147,0.068,0.362,0.153,0.673,0.247c0.658,0.196,1.545,0.46,2.126,1.05l1.347-3.462c0.074-0.191,0.26-0.318,0.466-0.318h2.02c0.207,0,0.393,0.128,0.467,0.321l1.065,2.785l-0.003-2.604c0-0.133,0.053-0.261,0.146-0.354S11.754,8,11.887,8h2.339C17.345,8,18,9.625,18,10.988c0,1.745-1.302,2.829-3.397,2.829h-0.256l-0.007,1.443c-0.001,0.274-0.225,0.497-0.5,0.497l0,0l-3.541-0.002c-0.223,0-0.418-0.146-0.479-0.359l-0.112-0.384c-0.585,0.106-1.238,0.101-1.819-0.017l-0.187,0.451c-0.077,0.187-0.259,0.308-0.461,0.309l-1.974,0.005H5.266c-0.11,0-0.217-0.036-0.303-0.102c-0.482,0.216-1.043,0.328-1.695,0.339L3.054,16z M1.19,14.647C1.759,14.879,2.375,15,2.997,15l0.257-0.002c0.726-0.012,1.287-0.175,1.714-0.496c0.164-0.125,0.436-0.169,0.611-0.058c0.123,0.078,0.224,0.188,0.26,0.315l1.066-0.003l0.226-0.545c0.1-0.24,0.369-0.363,0.615-0.284c0.657,0.209,1.498,0.216,2.158,0.009c0.128-0.04,0.267-0.026,0.385,0.037s0.206,0.172,0.243,0.3l0.142,0.482l2.669,0.002l0.007-1.443c0.001-0.274,0.225-0.497,0.5-0.497h0.753c0.896,0,2.397-0.237,2.397-1.829C17,10.062,16.685,9,14.226,9h-1.838l0.006,4.819c0,0.241-0.172,0.448-0.409,0.492c-0.233,0.046-0.471-0.087-0.558-0.312l-1.913-5H8.18L6.565,13.15c-0.081,0.209-0.295,0.34-0.517,0.315c-0.224-0.022-0.405-0.192-0.442-0.414c-0.126-0.75-0.979-1.062-1.995-1.364c-0.823-0.25-1.66-0.595-1.646-1.267c0.004-0.218,0.102-0.427,0.273-0.587c0.279-0.261,0.722-0.385,1.308-0.354c0.444,0.021,0.85,0.062,1.479,0.305l0.277-0.455C4.704,9.125,4.004,9.001,3.396,9C2.562,9,1.838,9.24,1.407,9.658C1.147,9.908,1.003,10.235,1,10.581c-0.01,0.498,0.16,0.819,0.585,1.111c0.437,0.302,1.031,0.494,1.441,0.613c0.724,0.21,1.544,0.448,1.529,1.19c-0.01,0.268-0.118,0.51-0.306,0.691c-0.315,0.308-0.748,0.355-1.089,0.362c-0.563,0.015-1.068-0.048-1.73-0.351L1.19,14.647z" fill="#b31734" class="color000 svgShape"></path><path d="M14.363 12.312h-.515c-.276 0-.5-.224-.5-.5v-1.764c0-.276.224-.5.5-.5h.515c1.606 0 1.731 1.05 1.731 1.371 0 0 0 0 0 .001C16.094 11.338 15.924 12.312 14.363 12.312zM14.349 11.312h.015c.73 0 .731-.246.731-.394 0-.12-.001-.37-.731-.37h-.015V11.312zM15.595 10.919h.01H15.595zM8.837 13.211c-.309 0-.612-.054-.88-.156C7.7 12.957 7.57 12.669 7.668 12.411l.693-1.83c.074-.194.26-.323.468-.323h.014c.209 0 .396.13.469.326l.683 1.836c.047.125.041.264-.016.385-.056.121-.158.214-.283.26C9.425 13.161 9.136 13.211 8.837 13.211zM8.813 12.211c.012-.001.023-.001.036 0l-.018-.049L8.813 12.211z" fill="#b31734" class="color000 svgShape"></path></svg></g></svg>